<mxfile host="Electron" modified="2023-08-30T17:52:55.287Z" agent="Mozilla/5.0 (Windows NT 10.0; Win64; x64) AppleWebKit/537.36 (KHTML, like Gecko) draw.io/21.6.8 Chrome/114.0.5735.289 Electron/25.5.0 Safari/537.36" etag="JxGlOAmbMo9uKsaTpXYQ" version="21.6.8" type="device">
  <diagram id="C5RBs43oDa-KdzZeNtuy" name="Page-1">
    <mxGraphModel dx="3070" dy="1276" grid="1" gridSize="10" guides="1" tooltips="1" connect="1" arrows="1" fold="1" page="0" pageScale="1" pageWidth="827" pageHeight="1169" math="0" shadow="0">
      <root>
        <mxCell id="WIyWlLk6GJQsqaUBKTNV-0" />
        <mxCell id="WIyWlLk6GJQsqaUBKTNV-1" parent="WIyWlLk6GJQsqaUBKTNV-0" />
        <mxCell id="0U0m3jl4hI52JeGNszIF-64" value="StudentDto" style="swimlane;fontStyle=2;align=center;verticalAlign=top;childLayout=stackLayout;horizontal=1;startSize=26;horizontalStack=0;resizeParent=1;resizeLast=0;collapsible=1;marginBottom=0;rounded=0;shadow=0;strokeWidth=1;labelBackgroundColor=none;fontFamily=Verdana;" parent="WIyWlLk6GJQsqaUBKTNV-1" vertex="1">
          <mxGeometry x="-643.75" y="890" width="227.5" height="290" as="geometry">
            <mxRectangle x="220" y="80" width="160" height="26" as="alternateBounds" />
          </mxGeometry>
        </mxCell>
        <mxCell id="0U0m3jl4hI52JeGNszIF-65" value="Id &lt;Guid, primary key, req&gt;" style="text;align=left;verticalAlign=top;spacingLeft=4;spacingRight=4;overflow=hidden;rotatable=0;points=[[0,0.5],[1,0.5]];portConstraint=eastwest;rounded=0;labelBackgroundColor=none;fontFamily=Verdana;" parent="0U0m3jl4hI52JeGNszIF-64" vertex="1">
          <mxGeometry y="26" width="227.5" height="26" as="geometry" />
        </mxCell>
        <mxCell id="FteJdNU-tOpWBhw1sYGo-2" value="Nickname &lt;string, req&gt;" style="text;align=left;verticalAlign=top;spacingLeft=4;spacingRight=4;overflow=hidden;rotatable=0;points=[[0,0.5],[1,0.5]];portConstraint=eastwest;rounded=0;labelBackgroundColor=none;fontFamily=Verdana;" parent="0U0m3jl4hI52JeGNszIF-64" vertex="1">
          <mxGeometry y="52" width="227.5" height="26" as="geometry" />
        </mxCell>
        <mxCell id="FteJdNU-tOpWBhw1sYGo-4" value="FirstName &lt;string&gt;" style="text;align=left;verticalAlign=top;spacingLeft=4;spacingRight=4;overflow=hidden;rotatable=0;points=[[0,0.5],[1,0.5]];portConstraint=eastwest;rounded=0;labelBackgroundColor=none;fontFamily=Verdana;" parent="0U0m3jl4hI52JeGNszIF-64" vertex="1">
          <mxGeometry y="78" width="227.5" height="26" as="geometry" />
        </mxCell>
        <mxCell id="FteJdNU-tOpWBhw1sYGo-5" value="LastName &lt;string&gt;" style="text;align=left;verticalAlign=top;spacingLeft=4;spacingRight=4;overflow=hidden;rotatable=0;points=[[0,0.5],[1,0.5]];portConstraint=eastwest;rounded=0;labelBackgroundColor=none;fontFamily=Verdana;" parent="0U0m3jl4hI52JeGNszIF-64" vertex="1">
          <mxGeometry y="104" width="227.5" height="26" as="geometry" />
        </mxCell>
        <mxCell id="FteJdNU-tOpWBhw1sYGo-23" value="SolvedMathProblems &lt;Guid list&gt;" style="text;align=left;verticalAlign=top;spacingLeft=4;spacingRight=4;overflow=hidden;rotatable=0;points=[[0,0.5],[1,0.5]];portConstraint=eastwest;rounded=0;shadow=0;html=0;labelBackgroundColor=none;fontFamily=Verdana;" parent="0U0m3jl4hI52JeGNszIF-64" vertex="1">
          <mxGeometry y="130" width="227.5" height="26" as="geometry" />
        </mxCell>
        <mxCell id="0U0m3jl4hI52JeGNszIF-69" value="Experience &lt;int&gt;" style="text;align=left;verticalAlign=top;spacingLeft=4;spacingRight=4;overflow=hidden;rotatable=0;points=[[0,0.5],[1,0.5]];portConstraint=eastwest;rounded=0;labelBackgroundColor=none;fontFamily=Verdana;" parent="0U0m3jl4hI52JeGNszIF-64" vertex="1">
          <mxGeometry y="156" width="227.5" height="26" as="geometry" />
        </mxCell>
        <mxCell id="0U0m3jl4hI52JeGNszIF-66" value="CorrectAnswersOrder &lt;int list&gt;" style="text;align=left;verticalAlign=top;spacingLeft=4;spacingRight=4;overflow=hidden;rotatable=0;points=[[0,0.5],[1,0.5]];portConstraint=eastwest;rounded=0;shadow=0;html=0;labelBackgroundColor=none;fontFamily=Verdana;" parent="0U0m3jl4hI52JeGNszIF-64" vertex="1">
          <mxGeometry y="182" width="227.5" height="26" as="geometry" />
        </mxCell>
        <mxCell id="0U0m3jl4hI52JeGNszIF-67" value="IncorrectAnswersOrder &lt;int list&gt;" style="text;align=left;verticalAlign=top;spacingLeft=4;spacingRight=4;overflow=hidden;rotatable=0;points=[[0,0.5],[1,0.5]];portConstraint=eastwest;rounded=0;shadow=0;html=0;labelBackgroundColor=none;fontFamily=Verdana;" parent="0U0m3jl4hI52JeGNszIF-64" vertex="1">
          <mxGeometry y="208" width="227.5" height="26" as="geometry" />
        </mxCell>
        <mxCell id="FteJdNU-tOpWBhw1sYGo-6" value="Location &lt;string&gt;" style="text;align=left;verticalAlign=top;spacingLeft=4;spacingRight=4;overflow=hidden;rotatable=0;points=[[0,0.5],[1,0.5]];portConstraint=eastwest;rounded=0;labelBackgroundColor=none;fontFamily=Verdana;" parent="0U0m3jl4hI52JeGNszIF-64" vertex="1">
          <mxGeometry y="234" width="227.5" height="26" as="geometry" />
        </mxCell>
        <mxCell id="FteJdNU-tOpWBhw1sYGo-22" value="About &lt;string&gt;" style="text;align=left;verticalAlign=top;spacingLeft=4;spacingRight=4;overflow=hidden;rotatable=0;points=[[0,0.5],[1,0.5]];portConstraint=eastwest;rounded=0;labelBackgroundColor=none;fontFamily=Verdana;" parent="0U0m3jl4hI52JeGNszIF-64" vertex="1">
          <mxGeometry y="260" width="227.5" height="26" as="geometry" />
        </mxCell>
        <mxCell id="AZF6OA6g05Esc3nsh4VR-5" value="Database" style="ellipse;whiteSpace=wrap;html=1;labelBackgroundColor=none;fillColor=none;fontFamily=Verdana;fontStyle=1" parent="WIyWlLk6GJQsqaUBKTNV-1" vertex="1">
          <mxGeometry x="-640" y="580" width="220" height="80" as="geometry" />
        </mxCell>
        <mxCell id="AZF6OA6g05Esc3nsh4VR-8" value="MathProblemDto" style="swimlane;fontStyle=2;align=center;verticalAlign=top;childLayout=stackLayout;horizontal=1;startSize=26;horizontalStack=0;resizeParent=1;resizeLast=0;collapsible=1;marginBottom=0;rounded=0;shadow=0;strokeWidth=1;labelBackgroundColor=none;fontFamily=Verdana;fillColor=default;" parent="WIyWlLk6GJQsqaUBKTNV-1" vertex="1">
          <mxGeometry x="-690" y="20" width="320" height="338" as="geometry">
            <mxRectangle x="220" y="80" width="160" height="26" as="alternateBounds" />
          </mxGeometry>
        </mxCell>
        <mxCell id="AZF6OA6g05Esc3nsh4VR-9" value="Id &lt;Guid, primary key, req&gt;" style="text;align=left;verticalAlign=top;spacingLeft=4;spacingRight=4;overflow=hidden;rotatable=0;points=[[0,0.5],[1,0.5]];portConstraint=eastwest;rounded=0;labelBackgroundColor=none;fontFamily=Verdana;labelBorderColor=none;strokeColor=none;fillColor=none;fillStyle=hatch;" parent="AZF6OA6g05Esc3nsh4VR-8" vertex="1">
          <mxGeometry y="26" width="320" height="26" as="geometry" />
        </mxCell>
        <mxCell id="AZF6OA6g05Esc3nsh4VR-10" value="Type &lt;MathProblemTypes, enum, req&gt;" style="text;align=left;verticalAlign=top;spacingLeft=4;spacingRight=4;overflow=hidden;rotatable=0;points=[[0,0.5],[1,0.5]];portConstraint=eastwest;rounded=0;shadow=0;html=0;labelBackgroundColor=none;fontFamily=Verdana;labelBorderColor=none;strokeColor=none;perimeterSpacing=0;" parent="AZF6OA6g05Esc3nsh4VR-8" vertex="1">
          <mxGeometry y="52" width="320" height="26" as="geometry" />
        </mxCell>
        <mxCell id="AZF6OA6g05Esc3nsh4VR-19" value="Difficulty &lt;int, req&gt;" style="text;align=left;verticalAlign=top;spacingLeft=4;spacingRight=4;overflow=hidden;rotatable=0;points=[[0,0.5],[1,0.5]];portConstraint=eastwest;rounded=0;labelBackgroundColor=none;fontFamily=Verdana;" parent="AZF6OA6g05Esc3nsh4VR-8" vertex="1">
          <mxGeometry y="78" width="320" height="26" as="geometry" />
        </mxCell>
        <mxCell id="AZF6OA6g05Esc3nsh4VR-11" value="QuestionNormalText &lt;string, req&gt;" style="text;align=left;verticalAlign=top;spacingLeft=4;spacingRight=4;overflow=hidden;rotatable=0;points=[[0,0.5],[1,0.5]];portConstraint=eastwest;rounded=0;shadow=0;html=0;labelBackgroundColor=none;fontFamily=Verdana;" parent="AZF6OA6g05Esc3nsh4VR-8" vertex="1">
          <mxGeometry y="104" width="320" height="26" as="geometry" />
        </mxCell>
        <mxCell id="AZF6OA6g05Esc3nsh4VR-12" value="QuestionLatex &lt;nullable string&gt;" style="text;align=left;verticalAlign=top;spacingLeft=4;spacingRight=4;overflow=hidden;rotatable=0;points=[[0,0.5],[1,0.5]];portConstraint=eastwest;rounded=0;labelBackgroundColor=none;fontFamily=Verdana;" parent="AZF6OA6g05Esc3nsh4VR-8" vertex="1">
          <mxGeometry y="130" width="320" height="26" as="geometry" />
        </mxCell>
        <mxCell id="AZF6OA6g05Esc3nsh4VR-13" value="OptionsRenderAsLatexOrder &lt;bool list&gt;" style="text;align=left;verticalAlign=top;spacingLeft=4;spacingRight=4;overflow=hidden;rotatable=0;points=[[0,0.5],[1,0.5]];portConstraint=eastwest;rounded=0;labelBackgroundColor=none;fontFamily=Verdana;" parent="AZF6OA6g05Esc3nsh4VR-8" vertex="1">
          <mxGeometry y="156" width="320" height="26" as="geometry" />
        </mxCell>
        <mxCell id="AZF6OA6g05Esc3nsh4VR-14" value="OptionsIndexOrder&lt;int list&gt;" style="text;align=left;verticalAlign=top;spacingLeft=4;spacingRight=4;overflow=hidden;rotatable=0;points=[[0,0.5],[1,0.5]];portConstraint=eastwest;rounded=0;labelBackgroundColor=none;fontFamily=Verdana;" parent="AZF6OA6g05Esc3nsh4VR-8" vertex="1">
          <mxGeometry y="182" width="320" height="26" as="geometry" />
        </mxCell>
        <mxCell id="AZF6OA6g05Esc3nsh4VR-15" value="OptionsContentOrder&lt;string list&gt;" style="text;align=left;verticalAlign=top;spacingLeft=4;spacingRight=4;overflow=hidden;rotatable=0;points=[[0,0.5],[1,0.5]];portConstraint=eastwest;rounded=0;labelBackgroundColor=none;fontFamily=Verdana;" parent="AZF6OA6g05Esc3nsh4VR-8" vertex="1">
          <mxGeometry y="208" width="320" height="26" as="geometry" />
        </mxCell>
        <mxCell id="AZF6OA6g05Esc3nsh4VR-16" value="AnswerIndex &lt;int&gt;" style="text;align=left;verticalAlign=top;spacingLeft=4;spacingRight=4;overflow=hidden;rotatable=0;points=[[0,0.5],[1,0.5]];portConstraint=eastwest;rounded=0;labelBackgroundColor=none;fontFamily=Verdana;" parent="AZF6OA6g05Esc3nsh4VR-8" vertex="1">
          <mxGeometry y="234" width="320" height="26" as="geometry" />
        </mxCell>
        <mxCell id="AZF6OA6g05Esc3nsh4VR-17" value="SolutionNormalTextsOrder &lt;nullable string list&gt;" style="text;align=left;verticalAlign=top;spacingLeft=4;spacingRight=4;overflow=hidden;rotatable=0;points=[[0,0.5],[1,0.5]];portConstraint=eastwest;rounded=0;labelBackgroundColor=none;fontFamily=Verdana;" parent="AZF6OA6g05Esc3nsh4VR-8" vertex="1">
          <mxGeometry y="260" width="320" height="26" as="geometry" />
        </mxCell>
        <mxCell id="AZF6OA6g05Esc3nsh4VR-18" value="SolutionLatexOrder &lt;nullable string list&gt;" style="text;align=left;verticalAlign=top;spacingLeft=4;spacingRight=4;overflow=hidden;rotatable=0;points=[[0,0.5],[1,0.5]];portConstraint=eastwest;rounded=0;labelBackgroundColor=none;fontFamily=Verdana;" parent="AZF6OA6g05Esc3nsh4VR-8" vertex="1">
          <mxGeometry y="286" width="320" height="26" as="geometry" />
        </mxCell>
        <mxCell id="N76HfdXOlVIYYwc_zLKl-0" value="Attributes &lt;nullable string list&gt;" style="text;align=left;verticalAlign=top;spacingLeft=4;spacingRight=4;overflow=hidden;rotatable=0;points=[[0,0.5],[1,0.5]];portConstraint=eastwest;rounded=0;labelBackgroundColor=none;fontFamily=Verdana;" parent="AZF6OA6g05Esc3nsh4VR-8" vertex="1">
          <mxGeometry y="312" width="320" height="26" as="geometry" />
        </mxCell>
        <mxCell id="AZF6OA6g05Esc3nsh4VR-43" style="edgeStyle=orthogonalEdgeStyle;rounded=0;orthogonalLoop=1;jettySize=auto;html=1;exitX=1;exitY=0.5;exitDx=0;exitDy=0;entryX=0;entryY=0.5;entryDx=0;entryDy=0;" parent="WIyWlLk6GJQsqaUBKTNV-1" source="AZF6OA6g05Esc3nsh4VR-21" target="AZF6OA6g05Esc3nsh4VR-27" edge="1">
          <mxGeometry relative="1" as="geometry">
            <mxPoint x="-82.5" y="188.9999999999999" as="targetPoint" />
          </mxGeometry>
        </mxCell>
        <mxCell id="AZF6OA6g05Esc3nsh4VR-44" style="rounded=0;orthogonalLoop=1;jettySize=auto;html=1;exitX=0.5;exitY=1;exitDx=0;exitDy=0;entryX=0.5;entryY=0;entryDx=0;entryDy=0;" parent="WIyWlLk6GJQsqaUBKTNV-1" source="AZF6OA6g05Esc3nsh4VR-21" target="AZF6OA6g05Esc3nsh4VR-36" edge="1">
          <mxGeometry relative="1" as="geometry" />
        </mxCell>
        <mxCell id="AZF6OA6g05Esc3nsh4VR-46" style="edgeStyle=orthogonalEdgeStyle;rounded=0;orthogonalLoop=1;jettySize=auto;html=1;exitX=0.5;exitY=0;exitDx=0;exitDy=0;entryX=0.5;entryY=1;entryDx=0;entryDy=0;" parent="WIyWlLk6GJQsqaUBKTNV-1" source="AZF6OA6g05Esc3nsh4VR-21" target="AZF6OA6g05Esc3nsh4VR-39" edge="1">
          <mxGeometry relative="1" as="geometry" />
        </mxCell>
        <mxCell id="AZF6OA6g05Esc3nsh4VR-21" value="MathProblem &lt;br style=&quot;font-size: 11px;&quot;&gt;- DTO to BO&lt;br&gt;Wrapper" style="ellipse;whiteSpace=wrap;html=1;aspect=fixed;fontStyle=1;fontFamily=Verdana;fillColor=none;fontSize=11;" parent="WIyWlLk6GJQsqaUBKTNV-1" vertex="1">
          <mxGeometry x="-282.5" y="139" width="100" height="100" as="geometry" />
        </mxCell>
        <mxCell id="AZF6OA6g05Esc3nsh4VR-24" value="MathProblem" style="swimlane;fontStyle=2;align=center;verticalAlign=top;childLayout=stackLayout;horizontal=1;startSize=26;horizontalStack=0;resizeParent=1;resizeLast=0;collapsible=1;marginBottom=0;rounded=0;shadow=0;strokeWidth=1;labelBackgroundColor=none;fontFamily=Verdana;" parent="WIyWlLk6GJQsqaUBKTNV-1" vertex="1">
          <mxGeometry x="-92.5" y="72" width="250" height="234" as="geometry">
            <mxRectangle x="-80" y="92" width="160" height="26" as="alternateBounds" />
          </mxGeometry>
        </mxCell>
        <mxCell id="AZF6OA6g05Esc3nsh4VR-25" value="Id &lt;Guid&gt;" style="text;align=left;verticalAlign=top;spacingLeft=4;spacingRight=4;overflow=hidden;rotatable=0;points=[[0,0.5],[1,0.5]];portConstraint=eastwest;rounded=0;labelBackgroundColor=none;fontFamily=Verdana;" parent="AZF6OA6g05Esc3nsh4VR-24" vertex="1">
          <mxGeometry y="26" width="250" height="26" as="geometry" />
        </mxCell>
        <mxCell id="AZF6OA6g05Esc3nsh4VR-26" value="Type &lt;MathProblemTypes, enum&gt;" style="text;align=left;verticalAlign=top;spacingLeft=4;spacingRight=4;overflow=hidden;rotatable=0;points=[[0,0.5],[1,0.5]];portConstraint=eastwest;rounded=0;shadow=0;html=0;labelBackgroundColor=none;fontFamily=Verdana;" parent="AZF6OA6g05Esc3nsh4VR-24" vertex="1">
          <mxGeometry y="52" width="250" height="26" as="geometry" />
        </mxCell>
        <mxCell id="AZF6OA6g05Esc3nsh4VR-35" value="Difficulty &lt;int&gt;" style="text;align=left;verticalAlign=top;spacingLeft=4;spacingRight=4;overflow=hidden;rotatable=0;points=[[0,0.5],[1,0.5]];portConstraint=eastwest;rounded=0;labelBackgroundColor=none;fontFamily=Verdana;" parent="AZF6OA6g05Esc3nsh4VR-24" vertex="1">
          <mxGeometry y="78" width="250" height="26" as="geometry" />
        </mxCell>
        <mxCell id="AZF6OA6g05Esc3nsh4VR-27" value="Question &lt;MathExposition&gt;" style="text;align=left;verticalAlign=top;spacingLeft=4;spacingRight=4;overflow=hidden;rotatable=0;points=[[0,0.5],[1,0.5]];portConstraint=eastwest;rounded=0;shadow=0;html=0;labelBackgroundColor=none;fontFamily=Verdana;" parent="AZF6OA6g05Esc3nsh4VR-24" vertex="1">
          <mxGeometry y="104" width="250" height="26" as="geometry" />
        </mxCell>
        <mxCell id="AZF6OA6g05Esc3nsh4VR-28" value="Options &lt;MathOption list&gt;" style="text;align=left;verticalAlign=top;spacingLeft=4;spacingRight=4;overflow=hidden;rotatable=0;points=[[0,0.5],[1,0.5]];portConstraint=eastwest;rounded=0;labelBackgroundColor=none;fontFamily=Verdana;" parent="AZF6OA6g05Esc3nsh4VR-24" vertex="1">
          <mxGeometry y="130" width="250" height="26" as="geometry" />
        </mxCell>
        <mxCell id="AZF6OA6g05Esc3nsh4VR-32" value="AnswerIndex &lt;int&gt;" style="text;align=left;verticalAlign=top;spacingLeft=4;spacingRight=4;overflow=hidden;rotatable=0;points=[[0,0.5],[1,0.5]];portConstraint=eastwest;rounded=0;labelBackgroundColor=none;fontFamily=Verdana;" parent="AZF6OA6g05Esc3nsh4VR-24" vertex="1">
          <mxGeometry y="156" width="250" height="26" as="geometry" />
        </mxCell>
        <mxCell id="AZF6OA6g05Esc3nsh4VR-29" value="Solution &lt;nullable MathExposition list&gt;" style="text;align=left;verticalAlign=top;spacingLeft=4;spacingRight=4;overflow=hidden;rotatable=0;points=[[0,0.5],[1,0.5]];portConstraint=eastwest;rounded=0;labelBackgroundColor=none;fontFamily=Verdana;" parent="AZF6OA6g05Esc3nsh4VR-24" vertex="1">
          <mxGeometry y="182" width="250" height="26" as="geometry" />
        </mxCell>
        <mxCell id="N76HfdXOlVIYYwc_zLKl-1" value="Attributes &lt;nullable string list&gt;" style="text;align=left;verticalAlign=top;spacingLeft=4;spacingRight=4;overflow=hidden;rotatable=0;points=[[0,0.5],[1,0.5]];portConstraint=eastwest;rounded=0;labelBackgroundColor=none;fontFamily=Verdana;" parent="AZF6OA6g05Esc3nsh4VR-24" vertex="1">
          <mxGeometry y="208" width="250" height="26" as="geometry" />
        </mxCell>
        <mxCell id="AZF6OA6g05Esc3nsh4VR-36" value="MathExposition&#xa;" style="swimlane;fontStyle=2;align=center;verticalAlign=top;childLayout=stackLayout;horizontal=1;startSize=26;horizontalStack=0;resizeParent=1;resizeLast=0;collapsible=1;marginBottom=0;rounded=0;shadow=0;strokeWidth=1;labelBackgroundColor=none;fontFamily=Verdana;" parent="WIyWlLk6GJQsqaUBKTNV-1" vertex="1">
          <mxGeometry x="-330" y="254" width="195" height="78" as="geometry">
            <mxRectangle x="220" y="80" width="160" height="26" as="alternateBounds" />
          </mxGeometry>
        </mxCell>
        <mxCell id="AZF6OA6g05Esc3nsh4VR-37" value="NormalText &lt;nullable string&gt;" style="text;align=left;verticalAlign=top;spacingLeft=4;spacingRight=4;overflow=hidden;rotatable=0;points=[[0,0.5],[1,0.5]];portConstraint=eastwest;rounded=0;labelBackgroundColor=none;fontFamily=Verdana;" parent="AZF6OA6g05Esc3nsh4VR-36" vertex="1">
          <mxGeometry y="26" width="195" height="26" as="geometry" />
        </mxCell>
        <mxCell id="AZF6OA6g05Esc3nsh4VR-38" value="Latex &lt;nullable string&gt;" style="text;align=left;verticalAlign=top;spacingLeft=4;spacingRight=4;overflow=hidden;rotatable=0;points=[[0,0.5],[1,0.5]];portConstraint=eastwest;rounded=0;shadow=0;html=0;labelBackgroundColor=none;fontFamily=Verdana;" parent="AZF6OA6g05Esc3nsh4VR-36" vertex="1">
          <mxGeometry y="52" width="195" height="26" as="geometry" />
        </mxCell>
        <mxCell id="AZF6OA6g05Esc3nsh4VR-39" value="MathOption&#xa;" style="swimlane;fontStyle=2;align=center;verticalAlign=top;childLayout=stackLayout;horizontal=1;startSize=26;horizontalStack=0;resizeParent=1;resizeLast=0;collapsible=1;marginBottom=0;rounded=0;shadow=0;strokeWidth=1;labelBackgroundColor=none;fontFamily=Verdana;" parent="WIyWlLk6GJQsqaUBKTNV-1" vertex="1">
          <mxGeometry x="-307.5" y="20" width="150" height="104" as="geometry">
            <mxRectangle x="-325" y="40" width="160" height="26" as="alternateBounds" />
          </mxGeometry>
        </mxCell>
        <mxCell id="AZF6OA6g05Esc3nsh4VR-40" value="RenderAsLatex &lt;bool&gt;" style="text;align=left;verticalAlign=top;spacingLeft=4;spacingRight=4;overflow=hidden;rotatable=0;points=[[0,0.5],[1,0.5]];portConstraint=eastwest;rounded=0;labelBackgroundColor=none;fontFamily=Verdana;" parent="AZF6OA6g05Esc3nsh4VR-39" vertex="1">
          <mxGeometry y="26" width="150" height="26" as="geometry" />
        </mxCell>
        <mxCell id="AZF6OA6g05Esc3nsh4VR-41" value="Index &lt;int&gt;" style="text;align=left;verticalAlign=top;spacingLeft=4;spacingRight=4;overflow=hidden;rotatable=0;points=[[0,0.5],[1,0.5]];portConstraint=eastwest;rounded=0;shadow=0;html=0;labelBackgroundColor=none;fontFamily=Verdana;" parent="AZF6OA6g05Esc3nsh4VR-39" vertex="1">
          <mxGeometry y="52" width="150" height="26" as="geometry" />
        </mxCell>
        <mxCell id="AZF6OA6g05Esc3nsh4VR-42" value="Content &lt;string&gt;" style="text;align=left;verticalAlign=top;spacingLeft=4;spacingRight=4;overflow=hidden;rotatable=0;points=[[0,0.5],[1,0.5]];portConstraint=eastwest;rounded=0;shadow=0;html=0;labelBackgroundColor=none;fontFamily=Verdana;" parent="AZF6OA6g05Esc3nsh4VR-39" vertex="1">
          <mxGeometry y="78" width="150" height="26" as="geometry" />
        </mxCell>
        <mxCell id="AZF6OA6g05Esc3nsh4VR-52" style="edgeStyle=orthogonalEdgeStyle;rounded=0;orthogonalLoop=1;jettySize=auto;html=1;exitX=1;exitY=0.5;exitDx=0;exitDy=0;entryX=0;entryY=0.5;entryDx=0;entryDy=0;dashed=1;" parent="WIyWlLk6GJQsqaUBKTNV-1" source="AZF6OA6g05Esc3nsh4VR-37" target="AZF6OA6g05Esc3nsh4VR-27" edge="1">
          <mxGeometry relative="1" as="geometry">
            <Array as="points">
              <mxPoint x="-112.5" y="293" />
              <mxPoint x="-112.5" y="189" />
            </Array>
          </mxGeometry>
        </mxCell>
        <mxCell id="AZF6OA6g05Esc3nsh4VR-53" style="edgeStyle=orthogonalEdgeStyle;rounded=0;orthogonalLoop=1;jettySize=auto;html=1;exitX=1;exitY=0.5;exitDx=0;exitDy=0;entryX=0;entryY=0.5;entryDx=0;entryDy=0;dashed=1;" parent="WIyWlLk6GJQsqaUBKTNV-1" source="AZF6OA6g05Esc3nsh4VR-41" target="AZF6OA6g05Esc3nsh4VR-27" edge="1">
          <mxGeometry relative="1" as="geometry">
            <Array as="points">
              <mxPoint x="-112.5" y="85" />
              <mxPoint x="-112.5" y="189" />
            </Array>
          </mxGeometry>
        </mxCell>
        <mxCell id="AZF6OA6g05Esc3nsh4VR-54" value="" style="shape=flexArrow;endArrow=classic;startArrow=classic;html=1;rounded=0;exitX=0.5;exitY=0;exitDx=0;exitDy=0;entryX=0.5;entryY=1;entryDx=0;entryDy=0;" parent="WIyWlLk6GJQsqaUBKTNV-1" source="kn9X9iY91rM-gy9ycGBs-0" target="AZF6OA6g05Esc3nsh4VR-8" edge="1">
          <mxGeometry width="100" height="100" relative="1" as="geometry">
            <mxPoint x="-30" y="568" as="sourcePoint" />
            <mxPoint x="-350" y="430" as="targetPoint" />
          </mxGeometry>
        </mxCell>
        <mxCell id="kn9X9iY91rM-gy9ycGBs-0" value="MathProblems&lt;br&gt;- Controller" style="ellipse;whiteSpace=wrap;html=1;labelBackgroundColor=none;fillColor=none;fontFamily=Verdana;fontStyle=1" parent="WIyWlLk6GJQsqaUBKTNV-1" vertex="1">
          <mxGeometry x="-615" y="430" width="170" height="70" as="geometry" />
        </mxCell>
        <mxCell id="xZ7m5gtDjuDiEkfV3Wdm-0" value="" style="shape=flexArrow;endArrow=classic;startArrow=classic;html=1;rounded=0;entryX=0.5;entryY=1;entryDx=0;entryDy=0;exitX=0.5;exitY=0;exitDx=0;exitDy=0;" parent="WIyWlLk6GJQsqaUBKTNV-1" source="AZF6OA6g05Esc3nsh4VR-5" target="kn9X9iY91rM-gy9ycGBs-0" edge="1">
          <mxGeometry width="100" height="100" relative="1" as="geometry">
            <mxPoint x="-480" y="550" as="sourcePoint" />
            <mxPoint x="-440" y="530" as="targetPoint" />
          </mxGeometry>
        </mxCell>
        <mxCell id="xZ7m5gtDjuDiEkfV3Wdm-3" value="Students&lt;br&gt;- Controller" style="ellipse;whiteSpace=wrap;html=1;labelBackgroundColor=none;fillColor=none;fontFamily=Verdana;fontStyle=1" parent="WIyWlLk6GJQsqaUBKTNV-1" vertex="1">
          <mxGeometry x="-615" y="740" width="170" height="70" as="geometry" />
        </mxCell>
        <mxCell id="xZ7m5gtDjuDiEkfV3Wdm-4" value="" style="shape=flexArrow;endArrow=classic;startArrow=classic;html=1;rounded=0;entryX=0.5;entryY=1;entryDx=0;entryDy=0;exitX=0.5;exitY=0;exitDx=0;exitDy=0;" parent="WIyWlLk6GJQsqaUBKTNV-1" source="xZ7m5gtDjuDiEkfV3Wdm-3" target="AZF6OA6g05Esc3nsh4VR-5" edge="1">
          <mxGeometry width="100" height="100" relative="1" as="geometry">
            <mxPoint x="-460" y="720" as="sourcePoint" />
            <mxPoint x="-430" y="680" as="targetPoint" />
          </mxGeometry>
        </mxCell>
        <mxCell id="OzGgNUH5DX0HEbrij9zI-7" style="edgeStyle=orthogonalEdgeStyle;rounded=0;orthogonalLoop=1;jettySize=auto;html=1;exitX=1;exitY=0.5;exitDx=0;exitDy=0;entryX=0;entryY=0.5;entryDx=0;entryDy=0;" parent="WIyWlLk6GJQsqaUBKTNV-1" source="xZ7m5gtDjuDiEkfV3Wdm-8" target="xZ7m5gtDjuDiEkfV3Wdm-29" edge="1">
          <mxGeometry relative="1" as="geometry" />
        </mxCell>
        <mxCell id="xZ7m5gtDjuDiEkfV3Wdm-8" value="Student&lt;br style=&quot;font-size: 11px;&quot;&gt;- DTO to BO&lt;br&gt;Converter" style="ellipse;whiteSpace=wrap;html=1;aspect=fixed;fontStyle=1;fontFamily=Verdana;fillColor=none;fontSize=11;" parent="WIyWlLk6GJQsqaUBKTNV-1" vertex="1">
          <mxGeometry x="-330" y="983" width="100" height="100" as="geometry" />
        </mxCell>
        <mxCell id="xZ7m5gtDjuDiEkfV3Wdm-24" value="Student" style="swimlane;fontStyle=2;align=center;verticalAlign=top;childLayout=stackLayout;horizontal=1;startSize=26;horizontalStack=0;resizeParent=1;resizeLast=0;collapsible=1;marginBottom=0;rounded=0;shadow=0;strokeWidth=1;labelBackgroundColor=none;fontFamily=Verdana;" parent="WIyWlLk6GJQsqaUBKTNV-1" vertex="1">
          <mxGeometry x="-140" y="890" width="340" height="290" as="geometry">
            <mxRectangle x="220" y="80" width="160" height="26" as="alternateBounds" />
          </mxGeometry>
        </mxCell>
        <mxCell id="xZ7m5gtDjuDiEkfV3Wdm-25" value="Id &lt;Guid, primary key&gt;" style="text;align=left;verticalAlign=top;spacingLeft=4;spacingRight=4;overflow=hidden;rotatable=0;points=[[0,0.5],[1,0.5]];portConstraint=eastwest;rounded=0;labelBackgroundColor=none;fontFamily=Verdana;" parent="xZ7m5gtDjuDiEkfV3Wdm-24" vertex="1">
          <mxGeometry y="26" width="340" height="26" as="geometry" />
        </mxCell>
        <mxCell id="xZ7m5gtDjuDiEkfV3Wdm-26" value="Nickname &lt;string&gt;" style="text;align=left;verticalAlign=top;spacingLeft=4;spacingRight=4;overflow=hidden;rotatable=0;points=[[0,0.5],[1,0.5]];portConstraint=eastwest;rounded=0;labelBackgroundColor=none;fontFamily=Verdana;" parent="xZ7m5gtDjuDiEkfV3Wdm-24" vertex="1">
          <mxGeometry y="52" width="340" height="26" as="geometry" />
        </mxCell>
        <mxCell id="xZ7m5gtDjuDiEkfV3Wdm-27" value="FirstName &lt;string&gt;" style="text;align=left;verticalAlign=top;spacingLeft=4;spacingRight=4;overflow=hidden;rotatable=0;points=[[0,0.5],[1,0.5]];portConstraint=eastwest;rounded=0;labelBackgroundColor=none;fontFamily=Verdana;" parent="xZ7m5gtDjuDiEkfV3Wdm-24" vertex="1">
          <mxGeometry y="78" width="340" height="26" as="geometry" />
        </mxCell>
        <mxCell id="xZ7m5gtDjuDiEkfV3Wdm-28" value="LastName &lt;string&gt;" style="text;align=left;verticalAlign=top;spacingLeft=4;spacingRight=4;overflow=hidden;rotatable=0;points=[[0,0.5],[1,0.5]];portConstraint=eastwest;rounded=0;labelBackgroundColor=none;fontFamily=Verdana;" parent="xZ7m5gtDjuDiEkfV3Wdm-24" vertex="1">
          <mxGeometry y="104" width="340" height="26" as="geometry" />
        </mxCell>
        <mxCell id="xZ7m5gtDjuDiEkfV3Wdm-29" value="SolvedMathProblems &lt;Guid list&gt;" style="text;align=left;verticalAlign=top;spacingLeft=4;spacingRight=4;overflow=hidden;rotatable=0;points=[[0,0.5],[1,0.5]];portConstraint=eastwest;rounded=0;shadow=0;html=0;labelBackgroundColor=none;fontFamily=Verdana;" parent="xZ7m5gtDjuDiEkfV3Wdm-24" vertex="1">
          <mxGeometry y="130" width="340" height="26" as="geometry" />
        </mxCell>
        <mxCell id="xZ7m5gtDjuDiEkfV3Wdm-30" value="Experience &lt;int&gt;" style="text;align=left;verticalAlign=top;spacingLeft=4;spacingRight=4;overflow=hidden;rotatable=0;points=[[0,0.5],[1,0.5]];portConstraint=eastwest;rounded=0;labelBackgroundColor=none;fontFamily=Verdana;" parent="xZ7m5gtDjuDiEkfV3Wdm-24" vertex="1">
          <mxGeometry y="156" width="340" height="26" as="geometry" />
        </mxCell>
        <mxCell id="xZ7m5gtDjuDiEkfV3Wdm-31" value="CorrectAnswers &lt;MathProblemTypes-int dictionary&gt;" style="text;align=left;verticalAlign=top;spacingLeft=4;spacingRight=4;overflow=hidden;rotatable=0;points=[[0,0.5],[1,0.5]];portConstraint=eastwest;rounded=0;shadow=0;html=0;labelBackgroundColor=none;fontFamily=Verdana;" parent="xZ7m5gtDjuDiEkfV3Wdm-24" vertex="1">
          <mxGeometry y="182" width="340" height="26" as="geometry" />
        </mxCell>
        <mxCell id="xZ7m5gtDjuDiEkfV3Wdm-32" value="IncorrectAnswers &lt;MathProblemTypes-int dictionary&gt;" style="text;align=left;verticalAlign=top;spacingLeft=4;spacingRight=4;overflow=hidden;rotatable=0;points=[[0,0.5],[1,0.5]];portConstraint=eastwest;rounded=0;shadow=0;html=0;labelBackgroundColor=none;fontFamily=Verdana;" parent="xZ7m5gtDjuDiEkfV3Wdm-24" vertex="1">
          <mxGeometry y="208" width="340" height="26" as="geometry" />
        </mxCell>
        <mxCell id="xZ7m5gtDjuDiEkfV3Wdm-33" value="Location &lt;string&gt;" style="text;align=left;verticalAlign=top;spacingLeft=4;spacingRight=4;overflow=hidden;rotatable=0;points=[[0,0.5],[1,0.5]];portConstraint=eastwest;rounded=0;labelBackgroundColor=none;fontFamily=Verdana;" parent="xZ7m5gtDjuDiEkfV3Wdm-24" vertex="1">
          <mxGeometry y="234" width="340" height="26" as="geometry" />
        </mxCell>
        <mxCell id="xZ7m5gtDjuDiEkfV3Wdm-34" value="About &lt;string&gt;" style="text;align=left;verticalAlign=top;spacingLeft=4;spacingRight=4;overflow=hidden;rotatable=0;points=[[0,0.5],[1,0.5]];portConstraint=eastwest;rounded=0;labelBackgroundColor=none;fontFamily=Verdana;" parent="xZ7m5gtDjuDiEkfV3Wdm-24" vertex="1">
          <mxGeometry y="260" width="340" height="26" as="geometry" />
        </mxCell>
        <mxCell id="N76HfdXOlVIYYwc_zLKl-2" style="edgeStyle=orthogonalEdgeStyle;rounded=0;orthogonalLoop=1;jettySize=auto;html=1;exitX=1;exitY=0.5;exitDx=0;exitDy=0;entryX=0;entryY=0.5;entryDx=0;entryDy=0;" parent="WIyWlLk6GJQsqaUBKTNV-1" source="3rihXzI-bwiFdM56vEWN-0" target="AZF6OA6g05Esc3nsh4VR-13" edge="1">
          <mxGeometry relative="1" as="geometry">
            <Array as="points">
              <mxPoint x="370" y="189" />
              <mxPoint x="370" />
              <mxPoint x="-710" />
              <mxPoint x="-710" y="189" />
            </Array>
          </mxGeometry>
        </mxCell>
        <mxCell id="3rihXzI-bwiFdM56vEWN-0" value="MathProblem &lt;br style=&quot;font-size: 11px;&quot;&gt;- BO to DTO&lt;br&gt;Wrapper" style="ellipse;whiteSpace=wrap;html=1;aspect=fixed;fontStyle=1;fontFamily=Verdana;fillColor=none;fontSize=11;" parent="WIyWlLk6GJQsqaUBKTNV-1" vertex="1">
          <mxGeometry x="250" y="139" width="100" height="100" as="geometry" />
        </mxCell>
        <mxCell id="3rihXzI-bwiFdM56vEWN-6" style="edgeStyle=orthogonalEdgeStyle;rounded=0;orthogonalLoop=1;jettySize=auto;html=1;exitX=1;exitY=0.5;exitDx=0;exitDy=0;entryX=0;entryY=0.5;entryDx=0;entryDy=0;" parent="WIyWlLk6GJQsqaUBKTNV-1" source="AZF6OA6g05Esc3nsh4VR-13" target="AZF6OA6g05Esc3nsh4VR-21" edge="1">
          <mxGeometry relative="1" as="geometry" />
        </mxCell>
        <mxCell id="3rihXzI-bwiFdM56vEWN-7" style="edgeStyle=orthogonalEdgeStyle;rounded=0;orthogonalLoop=1;jettySize=auto;html=1;exitX=1;exitY=0.5;exitDx=0;exitDy=0;entryX=0;entryY=0.5;entryDx=0;entryDy=0;" parent="WIyWlLk6GJQsqaUBKTNV-1" source="AZF6OA6g05Esc3nsh4VR-27" target="3rihXzI-bwiFdM56vEWN-0" edge="1">
          <mxGeometry relative="1" as="geometry">
            <mxPoint x="247.5" y="180" as="targetPoint" />
            <mxPoint x="157.5" y="180" as="sourcePoint" />
          </mxGeometry>
        </mxCell>
        <mxCell id="OzGgNUH5DX0HEbrij9zI-2" value="" style="shape=flexArrow;endArrow=classic;startArrow=classic;html=1;rounded=0;entryX=0.5;entryY=1;entryDx=0;entryDy=0;exitX=0.5;exitY=0;exitDx=0;exitDy=0;" parent="WIyWlLk6GJQsqaUBKTNV-1" source="0U0m3jl4hI52JeGNszIF-64" target="xZ7m5gtDjuDiEkfV3Wdm-3" edge="1">
          <mxGeometry width="100" height="100" relative="1" as="geometry">
            <mxPoint x="-460" y="860" as="sourcePoint" />
            <mxPoint x="-440" y="840" as="targetPoint" />
          </mxGeometry>
        </mxCell>
        <mxCell id="OzGgNUH5DX0HEbrij9zI-5" style="edgeStyle=orthogonalEdgeStyle;rounded=0;orthogonalLoop=1;jettySize=auto;html=1;exitX=1;exitY=0.5;exitDx=0;exitDy=0;entryX=0;entryY=0.5;entryDx=0;entryDy=0;" parent="WIyWlLk6GJQsqaUBKTNV-1" source="FteJdNU-tOpWBhw1sYGo-23" target="xZ7m5gtDjuDiEkfV3Wdm-8" edge="1">
          <mxGeometry relative="1" as="geometry" />
        </mxCell>
        <mxCell id="N76HfdXOlVIYYwc_zLKl-3" value="&lt;h1&gt;Behavior Diagram of Models&lt;/h1&gt;&lt;p&gt;excemath API © 2023 miu-miu-enjoyers.&lt;/p&gt;" style="text;html=1;strokeColor=none;fillColor=none;spacing=5;spacingTop=-20;whiteSpace=wrap;overflow=hidden;rounded=0;" parent="WIyWlLk6GJQsqaUBKTNV-1" vertex="1">
          <mxGeometry x="-910" y="-140" width="190" height="140" as="geometry" />
        </mxCell>
      </root>
    </mxGraphModel>
  </diagram>
</mxfile>
